<?xml version="1.0" standalone="no"?>
<!DOCTYPE svg PUBLIC "-//W3C//DTD SVG 20010904//EN"
 "http://www.w3.org/TR/2001/REC-SVG-20010904/DTD/svg10.dtd">
<svg version="1.0" xmlns="http://www.w3.org/2000/svg"
 width="192.000000pt" height="192.000000pt" viewBox="0 0 192.000000 192.000000"
 preserveAspectRatio="xMidYMid meet">
<metadata>
Created by potrace 1.11, written by Peter Selinger 2001-2013
</metadata>
<g transform="translate(0.000000,192.000000) scale(0.100000,-0.100000)"
fill="#000000" stroke="none">
<path d="M809 1625 c-15 -8 -36 -13 -48 -10 -12 2 -20 -1 -18 -8 1 -6 -2 -11
-8 -12 -29 -2 -65 -17 -65 -26 0 -6 -5 -7 -10 -4 -6 3 -13 -1 -16 -9 -3 -9
-10 -13 -15 -10 -5 3 -20 -6 -34 -20 -14 -14 -25 -22 -25 -19 0 3 -8 -4 -19
-15 -10 -12 -23 -22 -30 -22 -6 0 -11 -5 -11 -11 0 -7 -11 -22 -25 -35 -14
-13 -25 -28 -25 -33 0 -5 -8 -16 -17 -23 -10 -7 -19 -20 -21 -28 -2 -8 -9 -18
-15 -22 -7 -4 -8 -8 -3 -8 6 0 5 -5 -2 -12 -7 -7 -12 -20 -12 -30 0 -10 -4
-18 -9 -18 -5 0 -12 -18 -16 -40 -4 -22 -10 -38 -14 -35 -4 2 -8 -2 -8 -10 0
-8 5 -12 10 -8 5 3 4 -4 -2 -15 -6 -11 -11 -43 -11 -71 0 -61 22 -89 64 -84
41 6 63 32 62 76 -1 20 3 37 7 37 5 0 6 4 3 9 -4 5 0 12 6 14 10 4 10 6 0 6
-8 1 -10 6 -5 14 4 6 9 20 10 29 2 9 12 33 23 53 12 21 15 34 8 30 -7 -4 -5 0
5 8 9 8 17 17 17 21 0 6 28 40 78 94 17 19 32 32 32 28 0 -3 9 3 21 15 11 11
34 25 50 31 16 5 27 14 24 18 -3 4 4 6 15 3 11 -3 20 -1 20 5 0 9 28 18 90 27
14 2 25 4 25 5 0 7 47 5 51 -2 3 -4 10 -6 15 -2 6 3 21 7 33 8 21 3 80 36 63
36 -4 0 -3 10 4 21 8 15 8 19 0 15 -6 -4 -11 0 -11 8 0 9 -4 16 -10 16 -5 0
-10 6 -10 14 0 11 -19 14 -90 14 -49 0 -90 -4 -90 -9 0 -5 -5 -9 -11 -9 -5 0
-7 5 -4 10 8 13 6 12 -26 -5z"/>
<path d="M1224 1555 c-4 -8 -9 -13 -14 -10 -10 6 -30 -41 -25 -63 3 -20 55
-78 55 -62 0 4 20 -11 45 -36 25 -24 45 -48 45 -54 0 -6 5 -8 10 -5 6 3 10 -1
10 -9 0 -9 5 -16 11 -16 5 0 8 -4 5 -9 -3 -5 1 -14 10 -21 8 -7 13 -19 10 -27
-3 -8 -2 -12 3 -9 10 7 33 -49 24 -58 -4 -3 -2 -6 3 -6 5 0 11 -10 12 -22 5
-37 9 -63 11 -63 2 0 4 -8 6 -18 2 -9 0 -15 -4 -13 -9 6 -7 -31 2 -40 4 -4 -1
-13 -11 -21 -16 -12 -16 -13 1 -7 15 6 16 3 7 -21 -5 -14 -10 -37 -10 -51 0
-13 -5 -24 -11 -24 -6 0 -9 -7 -5 -15 3 -8 1 -15 -4 -15 -6 0 -9 -3 -8 -7 3
-11 -44 -103 -52 -103 -4 0 -5 -14 -2 -30 2 -17 8 -30 13 -30 5 0 9 -8 9 -17
0 -14 2 -15 9 -5 7 11 9 11 14 -2 5 -12 11 -13 36 -3 17 6 31 17 31 25 0 7 5
10 11 6 7 -4 10 -1 7 7 -3 8 0 19 6 26 28 32 33 40 30 56 -1 9 2 15 7 11 5 -3
9 5 9 18 0 13 4 28 10 34 5 5 11 18 13 29 1 11 7 26 11 34 7 10 5 12 -5 7 -8
-4 -5 0 5 8 11 9 14 16 8 16 -7 0 -12 8 -12 18 0 14 2 15 10 2 7 -12 9 -10 7
7 0 12 -4 20 -7 18 -3 -2 -6 5 -6 15 0 10 4 16 8 14 13 -8 9 11 -4 25 -10 11
-10 13 0 7 6 -4 12 -3 12 1 0 5 -6 15 -12 22 -10 11 -10 13 0 7 18 -11 15 5
-5 19 -13 9 -13 14 -3 20 9 6 11 4 5 -5 -5 -9 -4 -11 4 -6 9 6 9 11 0 22 -7 9
-14 27 -15 42 -5 48 -14 73 -24 67 -5 -3 -7 0 -5 8 7 16 -19 69 -29 60 -4 -4
-4 0 -1 9 3 8 -1 22 -9 31 -8 8 -12 17 -9 21 4 3 -2 6 -11 6 -11 0 -16 5 -13
13 3 7 -4 19 -14 25 -10 7 -19 20 -19 30 0 13 -2 14 -9 4 -6 -10 -11 -6 -19
17 -7 21 -18 31 -31 31 -11 0 -22 9 -26 20 -4 11 -11 18 -16 15 -5 -4 -9 -1
-9 5 0 6 -4 8 -10 5 -5 -3 -10 -1 -10 4 0 6 -9 11 -20 11 -11 0 -20 5 -20 10
0 16 -20 12 -26 -5z"/>
<path d="M990 1382 c0 -6 -21 -10 -47 -11 -73 -1 -97 -5 -108 -18 -5 -6 -19
-13 -30 -15 -11 -2 -28 -10 -39 -18 -35 -26 -96 -91 -96 -101 0 -6 -4 -7 -10
-4 -5 3 -7 0 -4 -8 3 -8 -2 -17 -12 -21 -13 -5 -14 -9 -4 -21 10 -12 9 -16 -4
-21 -9 -3 -13 -10 -10 -15 3 -5 -1 -9 -8 -9 -9 0 -9 -3 2 -10 9 -6 10 -10 3
-10 -6 0 -10 -9 -8 -20 2 -11 0 -20 -4 -20 -4 0 -4 -24 1 -52 4 -29 9 -58 10
-64 2 -16 68 -47 68 -33 0 6 6 9 13 6 8 -3 21 7 31 24 13 22 14 29 4 29 -8 0
-9 3 -3 8 12 8 15 52 4 52 -9 0 1 41 15 59 9 12 8 13 -2 7 -21 -13 38 76 67
101 25 22 36 27 54 24 4 0 7 3 7 8 0 5 7 12 16 15 9 4 13 2 8 -5 -4 -8 0 -7
15 0 12 7 26 9 31 6 6 -3 10 0 10 7 0 8 3 9 8 3 4 -5 16 -10 27 -10 11 1 29
-5 41 -12 11 -7 24 -10 27 -6 4 3 7 0 7 -7 0 -10 3 -11 11 -3 6 6 18 9 27 6
10 -4 13 -2 8 5 -6 11 5 16 25 14 4 -1 4 8 1 20 -3 12 -1 19 4 15 5 -3 10 3
10 13 0 10 -4 16 -9 13 -5 -3 -11 4 -14 15 -3 13 -17 23 -34 27 -16 4 -29 10
-29 15 0 4 -15 7 -34 6 -19 -1 -32 2 -30 6 2 3 0 9 -6 13 -5 3 -10 2 -10 -3z"/>
<path d="M1245 1140 c-11 -4 -23 -6 -27 -3 -5 2 -8 -1 -8 -6 0 -6 -6 -11 -14
-11 -9 0 -13 -9 -11 -25 1 -14 -2 -25 -6 -25 -5 0 -4 -11 1 -24 6 -17 5 -26
-3 -30 -8 -3 -7 -5 2 -5 11 -1 10 -6 -5 -23 -10 -12 -13 -18 -6 -14 6 4 12 2
12 -3 0 -6 -5 -11 -11 -11 -5 0 -7 -4 -4 -10 3 -5 1 -10 -4 -10 -6 0 -10 -3
-10 -7 3 -20 -2 -34 -11 -28 -5 3 -10 1 -10 -6 0 -14 -41 -53 -61 -57 -8 -2
-16 -8 -20 -13 -3 -5 -19 -11 -35 -12 -16 -1 -32 -6 -36 -12 -5 -6 -8 -5 -8 3
0 7 -4 10 -10 7 -5 -3 -19 -1 -30 5 -11 6 -20 7 -20 2 0 -4 -9 -8 -19 -8 -11
0 -18 3 -15 7 7 12 -28 20 -42 8 -7 -6 -18 -8 -23 -4 -7 4 -8 -1 -4 -11 4 -11
2 -15 -4 -11 -6 4 -13 -5 -15 -23 -3 -17 0 -30 5 -30 6 0 8 -3 4 -6 -9 -9 19
-34 37 -34 9 0 16 -4 16 -10 0 -5 7 -6 17 -3 11 4 14 3 9 -5 -5 -8 -2 -10 9
-6 8 4 23 0 32 -7 9 -8 14 -9 11 -3 -4 6 6 10 27 10 21 0 31 -4 27 -10 -3 -6
2 -5 11 2 9 8 21 11 27 7 5 -3 10 -2 10 4 0 5 9 8 20 6 12 -2 23 2 27 11 4 11
9 12 18 4 10 -8 16 -7 24 7 6 10 11 14 11 10 0 -4 10 1 22 12 11 11 26 18 31
14 6 -3 8 -2 5 3 -3 5 4 18 15 29 11 11 16 13 12 5 -7 -12 -6 -13 6 -2 8 7 14
16 14 20 1 4 13 26 28 50 15 23 25 47 22 52 -3 5 3 13 12 19 15 9 15 12 4 20
-9 6 -10 11 -2 15 6 4 9 11 6 16 -3 5 -1 12 5 15 8 5 7 11 -1 21 -9 11 -9 14
0 14 8 0 9 5 2 18 -7 13 -6 23 1 30 9 9 9 12 -1 12 -7 0 -10 4 -7 9 3 5 -4 11
-15 14 -12 3 -18 10 -15 16 9 14 -6 20 -29 11z"/>
<path d="M447 856 c-4 -9 -10 -16 -14 -15 -20 3 -34 -2 -28 -11 3 -5 2 -10 -3
-10 -11 0 -11 -53 1 -61 4 -3 9 -15 10 -27 0 -11 4 -20 7 -19 3 1 6 -2 8 -8 2
-5 10 -14 18 -18 8 -4 14 -13 14 -19 0 -6 11 -21 25 -34 14 -13 25 -28 25 -34
0 -6 5 -8 10 -5 6 3 10 1 10 -5 0 -5 15 -19 33 -30 17 -11 28 -20 22 -20 -5
-1 7 -9 28 -19 20 -9 34 -21 30 -26 -5 -4 0 -5 10 -2 11 4 20 1 23 -8 4 -8 10
-13 14 -10 5 3 11 1 14 -4 4 -5 14 -8 24 -7 9 2 26 -3 37 -10 11 -8 28 -14 38
-14 10 0 16 -4 13 -8 -3 -5 1 -9 9 -9 8 0 11 5 8 11 -4 7 -1 6 8 -1 17 -14
216 -15 225 -2 3 5 11 9 17 9 7 0 6 -4 -3 -10 -9 -6 -10 -10 -3 -10 6 0 18 7
27 15 8 9 18 16 21 15 35 -2 55 2 50 10 -3 6 4 10 17 10 13 0 40 14 61 31 31
25 35 34 27 50 -6 10 -8 19 -5 19 3 0 -4 9 -15 20 -23 23 -59 26 -79 8 -11
-11 -12 -10 -6 2 7 12 6 13 -7 3 -8 -7 -19 -9 -23 -5 -5 4 -5 1 -1 -5 6 -12
-5 -18 -26 -14 -5 0 -8 -4 -8 -9 0 -7 -7 -7 -20 0 -15 8 -20 8 -18 -2 2 -8 -7
-12 -24 -12 -16 1 -28 -2 -28 -5 0 -3 -29 -6 -65 -6 -36 0 -65 3 -65 6 0 3
-10 5 -22 5 -16 -1 -22 4 -20 14 3 12 1 13 -9 3 -15 -15 -33 -18 -25 -4 3 4
-6 6 -21 3 -18 -3 -24 -1 -19 7 5 7 -2 11 -18 11 -14 0 -26 5 -26 10 0 6 -6
10 -13 10 -7 0 -23 9 -35 20 -12 11 -25 20 -29 20 -12 0 -48 43 -45 53 1 5 -2
6 -7 2 -6 -3 -15 5 -22 17 -6 13 -21 31 -33 41 -11 10 -14 15 -6 11 8 -4 5 4
-7 18 -13 13 -23 30 -23 37 0 7 -4 9 -10 6 -5 -3 -10 1 -10 10 0 9 -5 13 -11
9 -6 -3 -15 -1 -19 6 -5 8 -9 7 -13 -4z"/>
</g>
</svg>
